<svg width="25" height="26" viewBox="0 0 25 26" fill="none" xmlns="http://www.w3.org/2000/svg">
<path d="M12.9625 22.1665C12.7932 22.2881 12.59 22.3535 12.3815 22.3535C12.173 22.3535 11.9698 22.2881 11.8005 22.1665C6.79005 18.5952 1.47252 11.2492 6.84816 5.94098C8.32394 4.48926 10.3114 3.67609 12.3815 3.677C14.4566 3.677 16.4477 4.49149 17.9149 5.93994C23.2905 11.2481 17.973 18.5931 12.9625 22.1665Z" stroke="#144661" stroke-width="1.55635" stroke-linecap="round" stroke-linejoin="round"/>
<path d="M12.3815 13.015C12.9319 13.015 13.4597 12.7964 13.8489 12.4072C14.238 12.0181 14.4567 11.4902 14.4567 10.9399C14.4567 10.3895 14.238 9.8617 13.8489 9.47254C13.4597 9.08338 12.9319 8.86475 12.3815 8.86475C11.8312 8.86475 11.3034 9.08338 10.9142 9.47254C10.525 9.8617 10.3064 10.3895 10.3064 10.9399C10.3064 11.4902 10.525 12.0181 10.9142 12.4072C11.3034 12.7964 11.8312 13.015 12.3815 13.015Z" stroke="#144661" stroke-width="1.55635" stroke-linecap="round" stroke-linejoin="round"/>
</svg>
