<svg width="25" height="26" viewBox="0 0 25 26" fill="none" xmlns="http://www.w3.org/2000/svg">
<path d="M14.3517 17.7042C14.566 17.8026 14.8074 17.8251 15.0362 17.7679C15.265 17.7108 15.4674 17.5774 15.6103 17.3898L15.9786 16.9073C16.1719 16.6496 16.4225 16.4404 16.7107 16.2963C16.9988 16.1523 17.3166 16.0773 17.6387 16.0773H20.7514C21.3018 16.0773 21.8296 16.2959 22.2188 16.685C22.6079 17.0742 22.8266 17.602 22.8266 18.1524V21.2651C22.8266 21.8155 22.6079 22.3433 22.2188 22.7324C21.8296 23.1216 21.3018 23.3402 20.7514 23.3402C15.7982 23.3402 11.0478 21.3726 7.54534 17.8701C4.04286 14.3676 2.0752 9.61725 2.0752 4.664C2.0752 4.11364 2.29383 3.58582 2.68299 3.19666C3.07215 2.8075 3.59997 2.58887 4.15033 2.58887H7.26304C7.8134 2.58887 8.34122 2.8075 8.73038 3.19666C9.11954 3.58582 9.33817 4.11364 9.33817 4.664V7.77671C9.33817 8.09886 9.26317 8.41659 9.1191 8.70474C8.97502 8.99288 8.76584 9.24353 8.50812 9.43682L8.02254 9.801C7.83206 9.94645 7.6978 10.1533 7.64257 10.3866C7.58734 10.6198 7.61455 10.8649 7.71957 11.0803C9.13759 13.9605 11.4698 16.2897 14.3517 17.7042Z" fill="white" stroke="#144661" stroke-width="2.07514" stroke-linecap="round" stroke-linejoin="round"/>
</svg>
