<svg width="41" height="42" viewBox="0 0 41 42" fill="none" xmlns="http://www.w3.org/2000/svg">
<g clip-path="url(#clip0_180_280)">
<path d="M40.8723 20.8121C40.8723 9.56094 31.7513 0.439941 20.5001 0.439941C9.24893 0.439941 0.12793 9.56094 0.12793 20.8121C0.12793 30.9804 7.57777 39.4085 17.3169 40.9368V26.7009H12.1443V20.8121H17.3169V16.3239C17.3169 11.2181 20.3584 8.39782 25.0119 8.39782C27.2407 8.39782 29.5721 8.79571 29.5721 8.79571V13.8092H27.0033C24.4725 13.8092 23.6832 15.3796 23.6832 16.9907V20.8121H29.3333L28.4301 26.7009H23.6832V40.9368C33.4224 39.4085 40.8723 30.9805 40.8723 20.8121Z" fill="#1877F2"/>
<path d="M28.4301 26.7008L29.3334 20.812H23.6833V16.9906C23.6833 15.3793 24.4725 13.8091 27.0033 13.8091H29.5721V8.7956C29.5721 8.7956 27.2408 8.39771 25.0118 8.39771C20.3585 8.39771 17.317 11.218 17.317 16.3238V20.812H12.1443V26.7008H17.317V40.9367C18.37 41.1017 19.4343 41.1844 20.5001 41.1842C21.566 41.1844 22.6302 41.1017 23.6833 40.9367V26.7008H28.4301Z" fill="white"/>
</g>
<defs>
<clipPath id="clip0_180_280">
<rect width="40.7443" height="40.7443" fill="white" transform="translate(0.12793 0.439941)"/>
</clipPath>
</defs>
</svg>
