<svg width="42" height="42" viewBox="0 0 42 42" fill="none" xmlns="http://www.w3.org/2000/svg">
<g clip-path="url(#clip0_180_283)">
<path d="M31.5322 0.439941H9.88679C4.61278 0.439941 0.337341 4.71538 0.337341 9.98939V31.6348C0.337341 36.9088 4.61278 41.1843 9.88679 41.1843H31.5322C36.8062 41.1843 41.0817 36.9088 41.0817 31.6348V9.98939C41.0817 4.71538 36.8062 0.439941 31.5322 0.439941Z" fill="url(#paint0_radial_180_283)"/>
<path d="M31.5322 0.439941H9.88679C4.61278 0.439941 0.337341 4.71538 0.337341 9.98939V31.6348C0.337341 36.9088 4.61278 41.1843 9.88679 41.1843H31.5322C36.8062 41.1843 41.0817 36.9088 41.0817 31.6348V9.98939C41.0817 4.71538 36.8062 0.439941 31.5322 0.439941Z" fill="url(#paint1_radial_180_283)"/>
<path d="M20.7114 4.89673C16.389 4.89673 15.8464 4.91567 14.1488 4.99286C12.4544 5.07053 11.2978 5.33871 10.2859 5.73231C9.23898 6.13879 8.35104 6.68263 7.46644 7.56755C6.58105 8.45231 6.03721 9.34025 5.62945 10.3867C5.23474 11.399 4.96624 12.556 4.89 14.2496C4.81408 15.9474 4.79419 16.4901 4.79419 20.8126C4.79419 25.1352 4.81329 25.676 4.89032 27.3736C4.96831 29.068 5.23649 30.2246 5.62977 31.2365C6.03657 32.2834 6.58041 33.1714 7.46533 34.056C8.34977 34.9414 9.23771 35.4865 10.2839 35.893C11.2966 36.2866 12.4533 36.5548 14.1474 36.6324C15.8451 36.7096 16.3872 36.7286 20.7095 36.7286C25.0323 36.7286 25.5732 36.7096 27.2707 36.6324C28.9651 36.5548 30.123 36.2866 31.1357 35.893C32.1822 35.4865 33.0688 34.9414 33.9531 34.056C34.8385 33.1714 35.3822 32.2834 35.7901 31.237C36.1813 30.2246 36.45 29.0677 36.5296 27.3739C36.6058 25.6763 36.6257 25.1352 36.6257 20.8126C36.6257 16.4901 36.6058 15.9477 36.5296 14.2499C36.45 12.5555 36.1813 11.3991 35.7901 10.3872C35.3822 9.34025 34.8385 8.45231 33.9531 7.56755C33.0679 6.68232 32.1825 6.13848 31.1348 5.73246C30.1201 5.33871 28.9629 5.07037 27.2685 4.99286C25.5708 4.91567 25.0303 4.89673 20.7064 4.89673H20.7114ZM19.2836 7.76491C19.7074 7.76427 20.1803 7.76491 20.7114 7.76491C24.961 7.76491 25.4646 7.78019 27.1428 7.85642C28.6946 7.92741 29.5368 8.18667 30.0978 8.40456C30.8406 8.69295 31.3702 9.03785 31.9269 9.59506C32.4839 10.1521 32.8287 10.6826 33.1179 11.4254C33.3357 11.9856 33.5953 12.8279 33.666 14.3797C33.7422 16.0575 33.7588 16.5614 33.7588 20.809C33.7588 25.0566 33.7422 25.5606 33.666 27.2383C33.595 28.7901 33.3357 29.6324 33.1179 30.1927C32.8295 30.9355 32.4839 31.4644 31.9269 32.0212C31.3698 32.5782 30.841 32.9229 30.0978 33.2115C29.5375 33.4303 28.6946 33.689 27.1428 33.7599C25.4649 33.8362 24.961 33.8527 20.7114 33.8527C16.4615 33.8527 15.9578 33.8362 14.2801 33.7599C12.7284 33.6883 11.8861 33.4291 11.3246 33.2112C10.582 32.9226 10.0513 32.5779 9.49427 32.0208C8.93722 31.4638 8.59248 30.9346 8.30329 30.1915C8.08541 29.6311 7.82582 28.7888 7.75516 27.237C7.67892 25.5592 7.66364 25.0553 7.66364 20.805C7.66364 16.5547 7.67892 16.0535 7.75516 14.3757C7.82614 12.8239 8.08541 11.9816 8.30329 11.4206C8.59185 10.6778 8.93722 10.1473 9.49443 9.59028C10.0516 9.03323 10.582 8.68834 11.3247 8.39931C11.8858 8.18047 12.7284 7.92184 14.2801 7.85053C15.7484 7.78416 16.3174 7.76427 19.2836 7.76093V7.76491ZM29.2072 10.4076C28.1528 10.4076 27.2973 11.2622 27.2973 12.3168C27.2973 13.3712 28.1528 14.2267 29.2072 14.2267C30.2616 14.2267 31.1171 13.3712 31.1171 12.3168C31.1171 11.2624 30.2616 10.4069 29.2072 10.4069V10.4076ZM20.7114 12.6391C16.1977 12.6391 12.538 16.2988 12.538 20.8126C12.538 25.3265 16.1977 28.9844 20.7114 28.9844C25.2252 28.9844 28.8836 25.3265 28.8836 20.8126C28.8836 16.2989 25.2249 12.6391 20.7111 12.6391H20.7114ZM20.7114 15.5073C23.6413 15.5073 26.0167 17.8824 26.0167 20.8126C26.0167 23.7426 23.6413 26.118 20.7114 26.118C17.7814 26.118 15.4062 23.7426 15.4062 20.8126C15.4062 17.8824 17.7813 15.5073 20.7114 15.5073Z" fill="white"/>
</g>
<defs>
<radialGradient id="paint0_radial_180_283" cx="0" cy="0" r="1" gradientUnits="userSpaceOnUse" gradientTransform="translate(11.1601 44.3224) rotate(-90) scale(40.3806 37.5572)">
<stop stop-color="#FFDD55"/>
<stop offset="0.1" stop-color="#FFDD55"/>
<stop offset="0.5" stop-color="#FF543E"/>
<stop offset="1" stop-color="#C837AB"/>
</radialGradient>
<radialGradient id="paint1_radial_180_283" cx="0" cy="0" r="1" gradientUnits="userSpaceOnUse" gradientTransform="translate(-6.48749 3.37496) rotate(78.681) scale(18.0504 74.4042)">
<stop stop-color="#3771C8"/>
<stop offset="0.128" stop-color="#3771C8"/>
<stop offset="1" stop-color="#6600FF" stop-opacity="0"/>
</radialGradient>
<clipPath id="clip0_180_283">
<rect width="40.7443" height="40.7443" fill="white" transform="translate(0.337341 0.439941)"/>
</clipPath>
</defs>
</svg>
