<svg width="42" height="42" viewBox="0 0 42 42" fill="none" xmlns="http://www.w3.org/2000/svg">
<g clip-path="url(#clip0_180_275)">
<path d="M32.1132 0.439941H10.4678C5.19377 0.439941 0.918335 4.71538 0.918335 9.98939V31.6348C0.918335 36.9088 5.19377 41.1843 10.4678 41.1843H32.1132C37.3872 41.1843 41.6627 36.9088 41.6627 31.6348V9.98939C41.6627 4.71538 37.3872 0.439941 32.1132 0.439941Z" fill="white"/>
<path d="M32.1132 0.439941H10.4678C5.19377 0.439941 0.918335 4.71538 0.918335 9.98939V31.6348C0.918335 36.9088 5.19377 41.1843 10.4678 41.1843H32.1132C37.3872 41.1843 41.6627 36.9088 41.6627 31.6348V9.98939C41.6627 4.71538 37.3872 0.439941 32.1132 0.439941Z" fill="#1D9BF0"/>
<path d="M32.6817 14.9887C32.6992 15.2413 32.6992 15.4938 32.6992 15.7488C32.6992 23.5152 26.7868 32.4723 15.9757 32.4723V32.4675C12.782 32.4721 9.65432 31.5574 6.96631 29.8327C7.43094 29.8884 7.89727 29.9166 8.3653 29.9175C11.0124 29.9197 13.5834 29.0318 15.6651 27.3966C14.4386 27.3733 13.25 26.9674 12.2655 26.2357C11.281 25.5039 10.5498 24.4827 10.174 23.315C11.0545 23.4849 11.9624 23.4502 12.8274 23.2138C10.0855 22.6598 8.11272 20.2506 8.11272 17.4526V17.3781C8.93013 17.8334 9.84496 18.0857 10.7802 18.1137C8.19771 16.3877 7.4016 12.9519 8.96103 10.2657C10.4365 12.0816 12.2776 13.5668 14.3646 14.6247C16.4516 15.6826 18.7378 16.2897 21.0747 16.4063C20.8417 15.4033 20.8761 14.3568 21.1745 13.3713C21.4728 12.3859 22.0247 11.496 22.7749 10.7907C25.1423 8.5654 28.8654 8.67952 31.0908 11.0456C32.407 10.7857 33.6693 10.3032 34.8232 9.61871C34.3844 10.9796 33.4662 12.1348 32.2394 12.8693C33.4045 12.7319 34.5423 12.4201 35.6147 11.9442C34.8259 13.1255 33.8327 14.1564 32.6817 14.9887Z" fill="white"/>
</g>
<defs>
<clipPath id="clip0_180_275">
<rect width="40.7443" height="40.7443" fill="white" transform="translate(0.918335 0.439941)"/>
</clipPath>
</defs>
</svg>
