<svg width="40" height="40" viewBox="0 0 40 40" fill="none" xmlns="http://www.w3.org/2000/svg">
<g clip-path="url(#clip0_170_100)">
<mask id="mask0_170_100" style="mask-type:luminance" maskUnits="userSpaceOnUse" x="0" y="0" width="40" height="40">
<path d="M0.101562 0.608032H39.3891V39.8956H0.101562V0.608032Z" fill="white"/>
<path fill-rule="evenodd" clip-rule="evenodd" d="M22.6912 15.3406C22.6912 15.1402 22.7708 14.9481 22.9125 14.8064C23.0541 14.6647 23.2463 14.5851 23.4467 14.5851H31.3797C31.5801 14.5851 31.7723 14.6647 31.914 14.8064C32.0557 14.9481 32.1353 15.1402 32.1353 15.3406C32.1353 15.541 32.0557 15.7332 31.914 15.8749C31.7723 16.0165 31.5801 16.0961 31.3797 16.0961H23.4467C23.2463 16.0961 23.0541 16.0165 22.9125 15.8749C22.7708 15.7332 22.6912 15.541 22.6912 15.3406Z" fill="black"/>
<path fill-rule="evenodd" clip-rule="evenodd" d="M27.3002 20.2514C27.0998 20.2514 26.9076 20.1718 26.7659 20.0301C26.6242 19.8885 26.5446 19.6963 26.5446 19.4959V11.5628C26.5446 11.3625 26.6242 11.1703 26.7659 11.0286C26.9076 10.8869 27.0998 10.8073 27.3002 10.8073C27.5005 10.8073 27.6927 10.8869 27.8344 11.0286C27.9761 11.1703 28.0557 11.3625 28.0557 11.5628V19.4959C28.0557 19.6963 27.9761 19.8885 27.8344 20.0301C27.6927 20.1718 27.5005 20.2514 27.3002 20.2514ZM14.9095 9.67402C13.9076 9.67402 12.9467 10.072 12.2383 10.7805C11.5298 11.4889 11.1318 12.4498 11.1318 13.4517C11.1318 14.4536 11.5298 15.4144 12.2383 16.1229C12.9467 16.8313 13.9076 17.2293 14.9095 17.2293C15.9114 17.2293 16.8722 16.8313 17.5807 16.1229C18.2891 15.4144 18.6871 14.4536 18.6871 13.4517C18.6871 12.4498 18.2891 11.4889 17.5807 10.7805C16.8722 10.072 15.9114 9.67402 14.9095 9.67402ZM9.62079 13.4517C9.62079 12.7571 9.75758 12.0694 10.0234 11.4278C10.2891 10.7861 10.6787 10.2031 11.1698 9.71199C11.6609 9.22089 12.2439 8.83132 12.8856 8.56554C13.5272 8.29976 14.215 8.16296 14.9095 8.16296C15.604 8.16296 16.2917 8.29976 16.9334 8.56554C17.575 8.83132 18.1581 9.22089 18.6492 9.71199C19.1403 10.2031 19.5298 10.7861 19.7956 11.4278C20.0614 12.0694 20.1982 12.7571 20.1982 13.4517C20.1982 14.8543 19.641 16.1995 18.6492 17.1913C17.6573 18.1832 16.3121 18.7404 14.9095 18.7404C13.5068 18.7404 12.1616 18.1832 11.1698 17.1913C10.178 16.1995 9.62079 14.8543 9.62079 13.4517Z" fill="black"/>
<path fill-rule="evenodd" clip-rule="evenodd" d="M5.84302 27.0514C5.84302 22.0316 9.87754 17.2295 14.9094 17.2295C19.9412 17.2295 23.9757 22.0316 23.9757 27.0514V30.0735C23.9757 30.2739 23.8961 30.466 23.7544 30.6077C23.6127 30.7494 23.4206 30.829 23.2202 30.829C23.0198 30.829 22.8276 30.7494 22.6859 30.6077C22.5443 30.466 22.4647 30.2739 22.4647 30.0735V27.0514C22.4647 22.7101 18.959 18.7406 14.9094 18.7406C10.8597 18.7406 7.35408 22.7101 7.35408 27.0514V30.0735C7.35408 30.2739 7.27448 30.466 7.13279 30.6077C6.9911 30.7494 6.79893 30.829 6.59855 30.829C6.39817 30.829 6.206 30.7494 6.06431 30.6077C5.92262 30.466 5.84302 30.2739 5.84302 30.0735V27.0514Z" fill="black"/>
</mask>
<g mask="url(#mask0_170_100)">
<path d="M19.7453 39.8956C30.5943 39.8956 39.3891 31.1007 39.3891 20.2518C39.3891 9.40284 30.5943 0.608032 19.7453 0.608032C8.89637 0.608032 0.101562 9.40284 0.101562 20.2518C0.101562 31.1007 8.89637 39.8956 19.7453 39.8956Z" fill="#4E82A0"/>
</g>
</g>
<defs>
<clipPath id="clip0_170_100">
<rect width="39.2875" height="39.2875" fill="white" transform="translate(0.101562 0.608032)"/>
</clipPath>
</defs>
</svg>
