<svg width="40" height="40" viewBox="0 0 40 40" fill="none" xmlns="http://www.w3.org/2000/svg">
<g clip-path="url(#clip0_170_112)">
<path d="M38.0069 23.5711C38.1895 23.5708 38.3704 23.6067 38.539 23.6767C38.7077 23.7467 38.8608 23.8494 38.9896 23.9789C39.1184 24.1084 39.2202 24.2621 39.2893 24.4312C39.3583 24.6002 39.3932 24.7813 39.3919 24.9639V31.2582C39.3932 31.4399 39.3586 31.6202 39.2902 31.7886C39.2218 31.957 39.1208 32.1103 38.9931 32.2397C38.8654 32.369 38.7134 32.4719 38.5459 32.5425C38.3783 32.6131 38.1985 32.65 38.0167 32.651C37.8349 32.65 37.6551 32.6131 37.4876 32.5425C37.3201 32.4719 37.1681 32.369 37.0404 32.2397C36.9127 32.1103 36.8117 31.957 36.7433 31.7886C36.6748 31.6202 36.6403 31.4399 36.6416 31.2582V29.0481C33.0642 35.0516 26.4242 39.2871 19.2695 39.2871C10.6061 39.2871 3.34527 33.9417 0.196179 25.7026C0.0628885 25.3594 0.070696 24.9774 0.217899 24.6399C0.365102 24.3025 0.639759 24.0369 0.981979 23.9011C1.6892 23.6241 2.48679 23.9797 2.76182 24.6967C5.51212 31.8907 11.7749 36.5034 19.2695 36.5034C25.8918 36.5034 32.078 32.2168 34.96 26.3783L32.0702 26.398C31.8884 26.3982 31.7084 26.3627 31.5403 26.2933C31.3723 26.2239 31.2196 26.1221 31.091 25.9936C30.9624 25.8652 30.8603 25.7126 30.7907 25.5447C30.7211 25.3768 30.6852 25.1968 30.6852 25.015C30.6805 24.648 30.8216 24.2941 31.0776 24.0311C31.3336 23.7681 31.6836 23.6175 32.0505 23.6123L38.0069 23.5711ZM20.2282 -0.00292969C28.8877 -0.00292969 36.1505 5.34248 39.2995 13.5816C39.4328 13.9248 39.425 14.3068 39.2778 14.6442C39.1306 14.9817 38.856 15.2473 38.5138 15.383C38.3448 15.4489 38.1644 15.4806 37.983 15.4762C37.8017 15.4718 37.6231 15.4314 37.4575 15.3574C37.2919 15.2834 37.1426 15.1772 37.0184 15.045C36.8942 14.9128 36.7975 14.7573 36.7339 14.5874C33.9836 7.39341 27.7208 2.78077 20.2262 2.78077C13.6039 2.78077 7.41768 7.06731 4.53576 12.9058L7.42554 12.8862C7.60732 12.8859 7.78737 12.9215 7.9554 12.9909C8.12342 13.0603 8.27611 13.1621 8.40474 13.2905C8.53338 13.419 8.63542 13.5715 8.70505 13.7395C8.77467 13.9074 8.81051 14.0874 8.81051 14.2692C8.81523 14.6362 8.67409 14.99 8.41809 15.253C8.16209 15.516 7.81217 15.6666 7.44518 15.6718L1.48686 15.7131C1.30424 15.7133 1.12338 15.6774 0.954718 15.6074C0.786053 15.5374 0.632921 15.4347 0.504159 15.3052C0.375397 15.1757 0.273555 15.022 0.204511 14.853C0.135466 14.6839 0.100586 14.5028 0.101883 14.3202V8.02598C0.101883 7.2559 0.716771 6.63315 1.47703 6.63315C2.23729 6.63315 2.85218 7.2559 2.85218 8.02598V10.236C6.42954 4.23253 13.0695 -0.00292969 20.2243 -0.00292969" fill="#4E82A0"/>
</g>
<defs>
<clipPath id="clip0_170_112">
<rect width="39.29" height="39.29" fill="white" transform="translate(0.101562 -0.00292969)"/>
</clipPath>
</defs>
</svg>
