<?xml version="1.0" standalone="no"?><svg xmlns="http://www.w3.org/2000/svg" viewBox="0 0 1440 320"><path fill="#5286a4" fill-opacity="1" d="M0,96L24,96C48,96,96,96,144,128C192,160,240,224,288,224C336,224,384,160,432,133.3C480,107,528,117,576,154.7C624,192,672,256,720,234.7C768,213,816,107,864,101.3C912,96,960,192,1008,202.7C1056,213,1104,139,1152,122.7C1200,107,1248,149,1296,149.3C1344,149,1392,107,1416,85.3L1440,64L1440,0L1416,0C1392,0,1344,0,1296,0C1248,0,1200,0,1152,0C1104,0,1056,0,1008,0C960,0,912,0,864,0C816,0,768,0,720,0C672,0,624,0,576,0C528,0,480,0,432,0C384,0,336,0,288,0C240,0,192,0,144,0C96,0,48,0,24,0L0,0Z"></path></svg>