<?xml version="1.0" standalone="no"?><svg xmlns="http://www.w3.org/2000/svg" viewBox="0 0 1440 320"><path fill="#BFD2DD" fill-opacity="1" d="M0,96L24,96C48,96,96,96,144,128C192,160,240,224,288,224C336,224,384,160,432,133.3C480,107,528,117,576,154.7C624,192,672,256,720,234.7C768,213,816,107,864,101.3C912,96,960,192,1008,202.7C1056,213,1104,139,1152,122.7C1200,107,1248,149,1296,149.3C1344,149,1392,107,1416,85.3L1440,64L1440,320L1416,320C1392,320,1344,320,1296,320C1248,320,1200,320,1152,320C1104,320,1056,320,1008,320C960,320,912,320,864,320C816,320,768,320,720,320C672,320,624,320,576,320C528,320,480,320,432,320C384,320,336,320,288,320C240,320,192,320,144,320C96,320,48,320,24,320L0,320Z"></path></svg>